<?xml version="1.0" encoding="UTF-8" standalone="no"?>
<!DOCTYPE svg PUBLIC "-//W3C//DTD SVG 1.1//EN" "http://www.w3.org/Graphics/SVG/1.1/DTD/svg11.dtd">
<svg width="100%" height="100%" viewBox="0 0 726 672" version="1.1" xmlns="http://www.w3.org/2000/svg" xmlns:xlink="http://www.w3.org/1999/xlink" xml:space="preserve" xmlns:serif="http://www.serif.com/" style="fill-rule:evenodd;clip-rule:evenodd;stroke-linejoin:round;stroke-miterlimit:2;">
    <g transform="matrix(1,0,0,1,-3.68173,0)">
        <g id="CCC-BLUE" transform="matrix(1,0,0,1.19754,-701.162,0)">
            <rect x="704.844" y="0" width="725.094" height="560.475" style="fill:none;"/>
            <g transform="matrix(1,0,0,1,20.7626,-2.3647)">
                <g transform="matrix(-0.905579,0.354206,-0.424178,-0.756197,2110.91,185.073)">
                    <path d="M1166.55,432.592C1135.93,495.064 1071.69,538.119 997.482,538.119C893.631,538.119 809.317,453.805 809.317,349.954C809.317,246.102 893.631,161.788 997.482,161.788C1017.61,161.788 1037,164.955 1055.19,170.816C1001.23,191.066 962.791,243.151 962.791,304.144C962.791,382.712 1026.58,446.499 1105.15,446.499C1127.13,446.499 1147.96,441.506 1166.55,432.592Z" style="fill:rgb(38,94,95);"/>
                </g>
                <g transform="matrix(-0.789695,0.212273,-0.254207,-0.659429,1241.6,571.88)">
                    <path d="M299.141,435.841C288.187,486.183 243.333,523.93 189.732,523.93C127.937,523.93 77.767,473.76 77.767,411.965C77.767,350.17 127.937,300 189.732,300C198.674,300 207.372,301.05 215.703,303.033C207.318,316.42 202.468,332.247 202.468,349.199C202.468,397.302 241.522,436.355 289.625,436.355C292.838,436.355 296.011,436.181 299.141,435.841Z" style="fill:rgb(38,94,95);"/>
                </g>
                <g transform="matrix(-1.32736,0.3568,-0.427284,-1.1084,1637.04,576.749)">
                    <circle cx="446.283" cy="299.557" r="30.2" style="fill:rgb(38,94,95);"/>
                </g>
            </g>
        </g>
    </g>
</svg>
